<svg id="Layer_1" data-name="Layer 1" xmlns="http://www.w3.org/2000/svg" viewBox="0 0 500 300"><defs><style>.cls-1,.cls-2{fill:none;stroke:#000;stroke-width:2px;}.cls-1{stroke-miterlimit:10;}.cls-2{stroke-linecap:round;stroke-linejoin:round;}</style></defs><title>Artboard 11</title><polyline class="cls-1" points="389.59 84.83 368.97 116.23 346.9 87.52 320.6 116.23 355.88 161.65 254.87 31.61 153.91 161.81 189.25 116.23 166.91 87.17 146.25 116.23 123.87 84.83 65.36 161.81 123.87 84.83 167.61 27.29 212.59 86.14 234.14 116.23 254.89 86.82 277.92 116.23 298.99 88.41 345.85 27.29 448.11 161.81"/><path class="cls-2" d="M100.5,204.23a24.31,24.31,0,0,1-48.61,0"/><path class="cls-2" d="M149.12,204.23a24.31,24.31,0,1,1-48.61,0"/><path class="cls-2" d="M197.73,204.23a24.31,24.31,0,1,1-48.61,0"/><path class="cls-2" d="M246.34,204.23a24.31,24.31,0,1,1-48.61,0"/><path class="cls-2" d="M295,204.23a24.31,24.31,0,0,1-48.61,0"/><path class="cls-2" d="M343.57,204.23a24.31,24.31,0,0,1-48.61,0"/><path class="cls-2" d="M392.18,204.23a24.31,24.31,0,0,1-48.61,0"/><path class="cls-2" d="M440.79,204.23a24.31,24.31,0,0,1-48.61,0"/><path class="cls-2" d="M124.81,248.41a24.31,24.31,0,0,1-48.61,0"/><path class="cls-2" d="M173.42,248.41a24.31,24.31,0,0,1-48.61,0"/><path class="cls-2" d="M222,248.41a24.31,24.31,0,0,1-48.61,0"/><path class="cls-2" d="M270.65,248.41a24.31,24.31,0,0,1-48.61,0"/><path class="cls-2" d="M319.26,248.41a24.31,24.31,0,0,1-48.61,0"/><path class="cls-2" d="M367.87,248.41a24.31,24.31,0,0,1-48.61,0"/><path class="cls-2" d="M416.49,248.41a24.31,24.31,0,0,1-48.61,0"/></svg>