<svg id="Layer_1" data-name="Layer 1" xmlns="http://www.w3.org/2000/svg" viewBox="0 0 500 300"><defs><style>.cls-1{fill:none;stroke:#000;stroke-miterlimit:10;stroke-width:2px;}</style></defs><title>Artboard 18</title><circle class="cls-1" cx="250" cy="150" r="125.98"/><circle class="cls-1" cx="249.63" cy="151.45" r="32.44"/><path class="cls-1" d="M195.29,263.36a57.05,57.05,0,0,1,113-1.64"/><path class="cls-1" d="M213.71,270.46a38.19,38.19,0,1,1,76.38,0"/><path class="cls-1" d="M361.74,207.7a57.06,57.06,0,0,1,1.61-112.76"/><path class="cls-1" d="M371.26,189.64a38.19,38.19,0,1,1,0-76.38"/><path class="cls-1" d="M137.38,93.47a57.05,57.05,0,0,1,0,113.06"/><path class="cls-1" d="M129.68,111.81a38.19,38.19,0,0,1,0,76.38"/><path class="cls-1" d="M305.94,37.1a57.06,57.06,0,0,1-112.58.34"/><path class="cls-1" d="M287.77,29.78c0,21.09-17.05,36.35-38.15,36.35s-38.19-15-38.19-36.1"/><line class="cls-1" x1="240.19" y1="24.02" x2="240.19" y2="275.61"/><line class="cls-1" x1="259.74" y1="24.02" x2="259.74" y2="275.61"/><line class="cls-1" x1="375.76" y1="140.04" x2="124.16" y2="140.04"/><line class="cls-1" x1="375.76" y1="159.59" x2="124.16" y2="159.59"/></svg>