<svg id="Layer_1" data-name="Layer 1" xmlns="http://www.w3.org/2000/svg" viewBox="0 0 500 300"><defs><style>.cls-1{fill:none;stroke:#000;stroke-miterlimit:10;stroke-width:2px;}</style></defs><title>Artboard 6</title><rect class="cls-1" x="35.79" y="141.01" width="43.74" height="122.89"/><rect class="cls-1" x="79.53" y="141.01" width="43.74" height="122.89"/><rect class="cls-1" x="123.27" y="141.01" width="43.74" height="122.89"/><rect class="cls-1" x="167.01" y="91.45" width="48.56" height="172.45"/><rect class="cls-1" x="332.99" y="141.01" width="43.74" height="122.89"/><rect class="cls-1" x="376.73" y="141.01" width="43.74" height="122.89"/><rect class="cls-1" x="420.47" y="141.01" width="43.74" height="122.89"/><rect class="cls-1" x="215.58" y="91.45" width="68.85" height="172.45"/><rect class="cls-1" x="284.42" y="91.45" width="48.56" height="172.45"/><line class="cls-1" x1="35.79" y1="173.31" x2="464.21" y2="173.31"/><line class="cls-1" x1="167.01" y1="120.32" x2="332.99" y2="120.32"/><line class="cls-1" x1="215.58" y1="120.32" x2="250" y2="91.45"/><line class="cls-1" x1="284.42" y1="120.32" x2="250" y2="91.45"/><rect class="cls-1" x="250" y="36.1" width="34.42" height="22.66"/><line class="cls-1" x1="250" y1="91.45" x2="250" y2="58.76"/><line class="cls-1" x1="57.66" y1="198.78" x2="57.66" y2="218.61"/><line class="cls-1" x1="57.66" y1="226.45" x2="57.66" y2="247.2"/><line class="cls-1" x1="101.4" y1="198.78" x2="101.4" y2="218.61"/><line class="cls-1" x1="101.4" y1="226.45" x2="101.4" y2="247.2"/><line class="cls-1" x1="145.14" y1="198.11" x2="145.14" y2="217.94"/><line class="cls-1" x1="145.14" y1="225.78" x2="145.14" y2="246.53"/><line class="cls-1" x1="191.92" y1="198.11" x2="191.92" y2="217.94"/><line class="cls-1" x1="191.92" y1="225.78" x2="191.92" y2="246.53"/><line class="cls-1" x1="354.86" y1="199.29" x2="354.86" y2="219.12"/><line class="cls-1" x1="354.86" y1="226.96" x2="354.86" y2="247.71"/><line class="cls-1" x1="398.6" y1="199.29" x2="398.6" y2="219.12"/><line class="cls-1" x1="398.6" y1="226.96" x2="398.6" y2="247.71"/><line class="cls-1" x1="442.34" y1="198.63" x2="442.34" y2="218.46"/><line class="cls-1" x1="442.34" y1="226.3" x2="442.34" y2="247.05"/><line class="cls-1" x1="310.15" y1="198.13" x2="310.15" y2="217.96"/><line class="cls-1" x1="310.15" y1="225.8" x2="310.15" y2="246.55"/><line class="cls-1" x1="191.3" y1="136.9" x2="191.3" y2="156.73"/><line class="cls-1" x1="250" y1="136.9" x2="250" y2="156.73"/><line class="cls-1" x1="310.15" y1="136.9" x2="310.15" y2="156.73"/><path class="cls-1" d="M267.21,263.9H229.5V202.45s4-12.32,18.86-12.32,18.86,12.32,18.86,12.32Z"/></svg>