<svg id="Layer_1" data-name="Layer 1" xmlns="http://www.w3.org/2000/svg" viewBox="0 0 500 300"><defs><style>.cls-1{fill:none;stroke:#231f20;stroke-miterlimit:10;stroke-width:2px;}</style></defs><title>Artboard 8</title><rect class="cls-1" x="104.6" y="99.99" width="165.31" height="142.32"/><line class="cls-1" x1="104.6" y1="118.46" x2="269.91" y2="118.46"/><line class="cls-1" x1="104.6" y1="166.27" x2="269.91" y2="166.27"/><line class="cls-1" x1="187.55" y1="118.46" x2="187.55" y2="166.27"/><path class="cls-1" d="M104.6,118.58v-23a21.52,21.52,0,0,1,21.52-21.52H248.39A21.52,21.52,0,0,1,269.91,95.6v23"/><polyline class="cls-1" points="104.6 125.54 89.52 125.54 89.11 155.75"/><polyline class="cls-1" points="269.91 125.54 284.99 125.54 285.4 155.75"/><path class="cls-1" d="M143.54,242.31v18.35a17,17,0,0,1-17,17h0a17,17,0,0,1-17-17V242.31"/><path class="cls-1" d="M264.25,242.31v18.35a17,17,0,0,1-17,17h0a17,17,0,0,1-17-17V242.31"/><path class="cls-1" d="M104.6,184.24h22.53a20.9,20.9,0,0,1,20.9,20.9h0a20.9,20.9,0,0,1-20.9,20.9H104.6"/><path class="cls-1" d="M268.94,226.56H246.41a20.9,20.9,0,0,1-20.9-20.9h0a20.9,20.9,0,0,1,20.9-20.9h22.53"/><line class="cls-1" x1="166.81" y1="196.57" x2="208.85" y2="196.57"/><line class="cls-1" x1="166.81" y1="214.53" x2="208.85" y2="214.53"/><polygon class="cls-1" points="345.58 81.84 383.25 208.38 307.91 208.38 345.58 81.84"/><line class="cls-1" x1="332.57" y1="125.54" x2="367.58" y2="155.75"/><line class="cls-1" x1="358.59" y1="125.54" x2="323.58" y2="155.75"/><line class="cls-1" x1="383.25" y1="208.38" x2="323.58" y2="155.75"/><line class="cls-1" x1="307.91" y1="208.38" x2="367.58" y2="155.75"/><circle class="cls-1" cx="346.26" cy="70.89" r="9.87"/><path class="cls-1" d="M321.48,84.66a28.67,28.67,0,0,1,0-34"/><path class="cls-1" d="M364.82,47.4a28.66,28.66,0,0,1,2.81,37.26"/><path class="cls-1" d="M306.66,91.36a47.5,47.5,0,0,1,0-56.31"/><path class="cls-1" d="M378.47,29.64a47.49,47.49,0,0,1,4.66,61.73"/><path class="cls-1" d="M291.1,108.57a66.37,66.37,0,0,1,0-78.69"/><path class="cls-1" d="M391.45,22.32A66.36,66.36,0,0,1,398,108.58"/></svg>