<svg id="Layer_1" data-name="Layer 1" xmlns="http://www.w3.org/2000/svg" viewBox="0 0 500 300"><defs><style>.cls-1{fill:#fdfdfd;}.cls-1,.cls-2{stroke:#000;stroke-miterlimit:10;stroke-width:2px;}.cls-2{fill:none;}</style></defs><title>Artboard 3</title><circle class="cls-1" cx="251.39" cy="76.8" r="11.64"/><line class="cls-2" x1="251.19" y1="222.66" x2="251.19" y2="88.44"/><line class="cls-2" x1="263.04" y1="76.8" x2="353.43" y2="76.8"/><line class="cls-2" x1="239.75" y1="76.8" x2="146.57" y2="76.8"/><line class="cls-2" x1="251.39" y1="65.15" x2="251.39" y2="43.45"/><line class="cls-2" x1="180.14" y1="76.8" x2="148.95" y2="167.51"/><line class="cls-2" x1="180.66" y1="76.8" x2="211.85" y2="167.51"/><path class="cls-2" d="M212.09,166.94c0,19.5-14.1,35.3-31.48,35.3s-31.48-15.8-31.48-35.3Z"/><line class="cls-2" x1="321.48" y1="76.8" x2="290.28" y2="167.51"/><line class="cls-2" x1="321.99" y1="76.8" x2="353.19" y2="167.51"/><path class="cls-2" d="M353.43,166.94c0,19.5-14.1,35.3-31.48,35.3s-31.48-15.8-31.48-35.3Z"/><path class="cls-2" d="M219.71,256.55c0-18.72,14.1-33.89,31.48-33.89s31.48,15.17,31.48,33.89Z"/></svg>