<svg id="Layer_1" data-name="Layer 1" xmlns="http://www.w3.org/2000/svg" viewBox="0 0 500 300"><defs><style>.cls-1{fill:none;}.cls-1,.cls-2{stroke:#000;stroke-miterlimit:10;stroke-width:2px;}.cls-2{fill:#fff;}</style></defs><title>Artboard 1</title><rect class="cls-1" x="96.18" y="49.02" width="307.64" height="201.96"/><g id="FuynNL.tif"><path class="cls-2" d="M131.79,128.76a39.8,39.8,0,0,1,1.38-6.11c1.1-4.29,2.23-8.58,3.4-12.86a1.84,1.84,0,0,0-.75-2.18q-6.47-5.22-12.89-10.49a10.41,10.41,0,0,1-2.57-2.82,2.91,2.91,0,0,1,1.51-4.49,10.78,10.78,0,0,1,3.61-.78c4.93-.3,9.86-.58,14.8-.8,3.19-.14,3.21-.08,4.38-3.06,1.85-4.72,3.68-9.45,5.53-14.18A9.44,9.44,0,0,1,152,67.83a2.84,2.84,0,0,1,4.55.05,10,10,0,0,1,1.85,3.19c2,5,4,10.07,5.87,15.14a2.4,2.4,0,0,0,2.42,1.92c3.66.12,7.31.38,11,.61,2.29.14,4.58.33,6.88.5a5,5,0,0,1,.76.13c3.75.88,4.58,3.4,1.92,6.2s-5.58,4.74-8.39,7.09c-2,1.7-4.07,3.38-6.16,5-.94.72-.86,1.48-.6,2.46q2.21,8.28,4.32,16.58a6.8,6.8,0,0,1,.22,3.41c-.51,2-1.72,2.81-3.79,2.36A15.46,15.46,0,0,1,168,130c-4.07-2.57-8.13-5.17-12.13-7.85a2.5,2.5,0,0,0-3.21,0c-4.78,3.13-9.62,6.16-14.43,9.24a7.85,7.85,0,0,1-2,.87C133.5,133.15,131.82,131.91,131.79,128.76Z"/></g><line class="cls-1" x1="96.18" y1="144.98" x2="403.82" y2="144.98"/><line class="cls-1" x1="210.68" y1="51.7" x2="210.68" y2="143.65"/></svg>