<svg id="Layer_1" data-name="Layer 1" xmlns="http://www.w3.org/2000/svg" viewBox="0 0 500 300"><defs><style>.cls-1{fill:none;stroke:#000;stroke-miterlimit:10;stroke-width:2px;}</style></defs><title>Artboard 17</title><rect class="cls-1" x="170.21" y="97.92" width="95.96" height="172.38"/><polyline class="cls-1" points="232.16 97.92 232.16 40.64 345.93 40.64 345.93 270.3 266.17 270.3"/><line class="cls-1" x1="266.17" y1="270.3" x2="232.16" y2="270.3"/><rect class="cls-1" x="345.93" y="213.87" width="78.62" height="56.42"/><polyline class="cls-1" points="169.55 200.4 96.54 200.4 96.54 270.3"/><polyline class="cls-1" points="96.55 270.3 73.59 270.3 73.59 29.7 151.02 29.7 151.02 200.4"/><line class="cls-1" x1="168.35" y1="270.3" x2="96.54" y2="270.3"/><line class="cls-1" x1="93.32" y1="46.98" x2="93.32" y2="65.68"/><line class="cls-1" x1="110.5" y1="46.98" x2="110.5" y2="65.68"/><line class="cls-1" x1="127.74" y1="46.98" x2="127.74" y2="65.68"/><line class="cls-1" x1="93.29" y1="79.22" x2="93.29" y2="97.92"/><line class="cls-1" x1="110.47" y1="79.22" x2="110.47" y2="97.92"/><line class="cls-1" x1="127.71" y1="79.22" x2="127.71" y2="97.92"/><line class="cls-1" x1="93.29" y1="109.39" x2="93.29" y2="128.09"/><line class="cls-1" x1="110.47" y1="109.39" x2="110.47" y2="128.09"/><line class="cls-1" x1="127.71" y1="109.39" x2="127.71" y2="128.09"/><line class="cls-1" x1="93.29" y1="138.53" x2="93.29" y2="157.22"/><line class="cls-1" x1="110.47" y1="138.53" x2="110.47" y2="157.22"/><line class="cls-1" x1="127.71" y1="138.53" x2="127.71" y2="157.22"/><line class="cls-1" x1="93.29" y1="169.46" x2="93.29" y2="188.15"/><line class="cls-1" x1="110.47" y1="169.46" x2="110.47" y2="188.15"/><line class="cls-1" x1="127.71" y1="169.46" x2="127.71" y2="188.15"/><line class="cls-1" x1="244.02" y1="115.77" x2="188.61" y2="115.77"/><line class="cls-1" x1="244.02" y1="131.79" x2="188.61" y2="131.79"/><line class="cls-1" x1="244.02" y1="147.87" x2="188.61" y2="147.87"/><line class="cls-1" x1="244.02" y1="165.84" x2="188.61" y2="165.84"/><line class="cls-1" x1="244.02" y1="181.86" x2="188.61" y2="181.86"/><line class="cls-1" x1="244.02" y1="197.94" x2="188.61" y2="197.94"/><line class="cls-1" x1="244.02" y1="214.02" x2="188.61" y2="214.02"/><line class="cls-1" x1="282.18" y1="73.07" x2="282.18" y2="94.89"/><line class="cls-1" x1="314.07" y1="73.07" x2="314.07" y2="94.89"/><line class="cls-1" x1="282.14" y1="110.7" x2="282.14" y2="132.53"/><line class="cls-1" x1="314.04" y1="110.7" x2="314.04" y2="132.53"/><line class="cls-1" x1="282.14" y1="145.93" x2="282.14" y2="167.75"/><line class="cls-1" x1="314.04" y1="145.93" x2="314.04" y2="167.75"/><line class="cls-1" x1="282.14" y1="179.93" x2="282.14" y2="201.76"/><line class="cls-1" x1="314.04" y1="179.93" x2="314.04" y2="201.76"/><line class="cls-1" x1="282.14" y1="216.05" x2="282.14" y2="237.87"/><line class="cls-1" x1="314.04" y1="216.05" x2="314.04" y2="237.87"/><polyline class="cls-1" points="345.93 213.87 385.24 184.11 426.41 213.87"/></svg>