<svg id="Layer_1" data-name="Layer 1" xmlns="http://www.w3.org/2000/svg" viewBox="0 0 500 300"><defs><style>.cls-1{fill:none;}.cls-1,.cls-2{stroke:#000;stroke-miterlimit:10;stroke-width:2px;}.cls-2{fill:#fff;}</style></defs><title>Artboard 7</title><g id="Gk7KNy.tif"><path class="cls-1" d="M250.16,57.74a238,238,0,0,1,24.77,1.55,212.18,212.18,0,0,1,38.45,8.27c5.32,1.67,10.54,3.62,15.74,5.63A6.3,6.3,0,0,1,333.48,79a182.26,182.26,0,0,1,1,22.75A185.89,185.89,0,0,1,332,127.14a167.51,167.51,0,0,1-8.64,31.92A158.53,158.53,0,0,1,306.5,191.5,161,161,0,0,1,284,218.12a165.43,165.43,0,0,1-28.34,21.66c-.91.55-1.81,1.11-2.73,1.64a5.47,5.47,0,0,1-5.86,0,169.32,169.32,0,0,1-27.33-19.88,162,162,0,0,1-22.84-25.17,159.3,159.3,0,0,1-16-27.24,163.09,163.09,0,0,1-10-28.39,171.72,171.72,0,0,1-4-21.5,175.23,175.23,0,0,1-1.31-24.62A149.64,149.64,0,0,1,166.66,78a5.39,5.39,0,0,1,3.53-4.56,213.81,213.81,0,0,1,23.33-8,209.17,209.17,0,0,1,20.76-4.66q8.09-1.39,16.26-2.14C237,58.1,243.51,57.83,250.16,57.74Z"/></g><g id="Gk7KNy.tif-2" data-name="Gk7KNy.tif"><path class="cls-1" d="M171.43,142.89a162.52,162.52,0,0,0,9.43,26.23,159.29,159.29,0,0,0,16,27.24,162,162,0,0,0,22.84,25.17A169.32,169.32,0,0,0,247,241.4a5.47,5.47,0,0,0,5.86,0c.92-.53,1.82-1.09,2.73-1.64A165.43,165.43,0,0,0,284,218.12,161,161,0,0,0,306.5,191.5a158.54,158.54,0,0,0,16.85-32.43,164.86,164.86,0,0,0,5.22-16.18Z"/></g><g id="FuynNL.tif"><path class="cls-2" d="M224.65,164.54a44.78,44.78,0,0,1,1.55-6.87c1.24-4.83,2.5-9.66,3.83-14.46a2.06,2.06,0,0,0-.85-2.45q-7.28-5.87-14.5-11.8a11.72,11.72,0,0,1-2.89-3.17,3.27,3.27,0,0,1,1.69-5.05,12.13,12.13,0,0,1,4.06-.87c5.55-.34,11.1-.65,16.65-.9,3.59-.16,3.61-.09,4.92-3.44,2.08-5.31,4.14-10.64,6.22-15.95A10.63,10.63,0,0,1,247.44,96a3.19,3.19,0,0,1,5.12.06,11.3,11.3,0,0,1,2.09,3.59c2.21,5.67,4.46,11.33,6.6,17,.51,1.36,1.14,2.11,2.73,2.16,4.12.13,8.23.43,12.34.68,2.58.16,5.16.37,7.74.56a5.58,5.58,0,0,1,.85.14c4.22,1,5.15,3.83,2.16,7-2.84,3-6.28,5.34-9.43,8-2.28,1.91-4.57,3.8-6.93,5.61-1.06.81-1,1.66-.67,2.76q2.48,9.31,4.86,18.65a7.65,7.65,0,0,1,.25,3.83c-.58,2.3-1.94,3.16-4.26,2.66a17.39,17.39,0,0,1-5.49-2.77c-4.58-2.89-9.15-5.81-13.65-8.83a2.81,2.81,0,0,0-3.61.05c-5.37,3.52-10.82,6.93-16.24,10.39a8.84,8.84,0,0,1-2.23,1C226.58,169.47,224.69,168.07,224.65,164.54Z"/></g></svg>