<svg id="Layer_1" data-name="Layer 1" xmlns="http://www.w3.org/2000/svg" viewBox="0 0 500 300"><defs><style>.cls-1,.cls-2{fill:none;stroke-miterlimit:10;stroke-width:2px;}.cls-1{stroke:#000;}.cls-2{stroke:#231f20;}</style></defs><title>Artboard 13</title><path class="cls-1" d="M140.63,85.85H359.37A10.62,10.62,0,0,1,370,96.46v147.6a0,0,0,0,1,0,0H130a0,0,0,0,1,0,0V96.46A10.62,10.62,0,0,1,140.63,85.85Z"/><path class="cls-1" d="M130,131.8v3.26a29.4,29.4,0,0,0,29.4,29.4h75"/><path class="cls-1" d="M268,164.47h72.61a29.4,29.4,0,0,0,29.4-29.4h0"/><path class="cls-2" d="M226.43,55.93H273a10.64,10.64,0,0,1,10.64,10.64V85.85a0,0,0,0,1,0,0H215.79a0,0,0,0,1,0,0V66.57a10.64,10.64,0,0,1,10.64-10.64Z"/><rect class="cls-2" x="234.38" y="138.48" width="33.59" height="51.97" rx="5.97" ry="5.97"/></svg>