<svg id="Layer_1" data-name="Layer 1" xmlns="http://www.w3.org/2000/svg" viewBox="0 0 500 300"><defs><style>.cls-1{fill:none;stroke:#000;stroke-miterlimit:10;stroke-width:2px;}</style></defs><title>Artboard 2</title><circle class="cls-1" cx="250" cy="146.9" r="73.19"/><path class="cls-1" d="M250,73.71c-6,2.24-18.89,16.48-21.38,23.57-2.07,5.91,1,9,1.33,20.56.23,8.26.53,19-6,23.88-4.43,3.29-8.56.33-15.92,1.33-6.43.87-19.12,10.4-28.54,23.64"/><path class="cls-1" d="M238.52,127.74c7.5,11.85,11.63,13.92,14.05,13.27,3.42-.93,2.79-7.11,9.44-15.17,4.13-5,7.12-5.93,6.65-7.53-.88-3-12.47-4-21.27.89A25.13,25.13,0,0,0,238.52,127.74Z"/><path class="cls-1" d="M273.26,77.48c-5.51,4.33-17.52,17.23-16.12,22.22s9.31,3.37,22.16,10.64,20.89,17.89,24.38,22.59c1.95,2.62,2.33,7.35,5.31,8,2.66.57,10.87-5.48,12.89-7.84"/><path class="cls-1" d="M207.09,206.19c2.4-3.25,21.13-29.57,29.67-36a10.82,10.82,0,0,1,4.43-2.22c6.16-1.3,9.31,4.61,14.18,4,6.31-.8,9.87-11.83,10.64-14.18,3.14-9.7-.27-14.18,4-19.5,2.43-3,7.23-6.2,10.64-4.87,5.57,2.16.64,13.69,8.86,23.93,5.74,7.15,14.56,9.51,15.51,9.75a127,127,0,0,0,14.82,1.84"/><path class="cls-1" d="M323.37,82.75a99.54,99.54,0,0,0-160.74,115"/><path class="cls-1" d="M177.29,217.94A99.53,99.53,0,0,0,337.79,103.08"/><polyline class="cls-1" points="150.47 196.44 162.63 197.71 166.04 186.37"/><polyline class="cls-1" points="348.94 108.1 337.79 103.08 330.99 112.78"/></svg>