<svg id="Layer_1" data-name="Layer 1" xmlns="http://www.w3.org/2000/svg" viewBox="0 0 500 300"><defs><style>.cls-1,.cls-2{fill:none;stroke:#000;stroke-width:2px;}.cls-1{stroke-miterlimit:10;}.cls-2{stroke-linecap:round;stroke-linejoin:round;}</style></defs><title>Artboard 9</title><circle class="cls-1" cx="247.97" cy="85.04" r="30.66"/><line class="cls-2" x1="245.84" y1="140.85" x2="245.84" y2="163.26"/><line class="cls-2" x1="247.97" y1="10.51" x2="247.97" y2="32.93"/><line class="cls-2" x1="272.96" y1="134.15" x2="284.17" y2="153.56"/><line class="cls-2" x1="209.64" y1="20.21" x2="220.84" y2="39.63"/><line class="cls-2" x1="293.1" y1="114.79" x2="312.51" y2="126"/><line class="cls-2" x1="181.29" y1="47.78" x2="200.71" y2="58.99"/><line class="cls-2" x1="192.94" y1="85.82" x2="170.53" y2="85.82"/><line class="cls-2" x1="323.28" y1="87.95" x2="300.86" y2="87.95"/><line class="cls-2" x1="219" y1="133.09" x2="207.8" y2="152.5"/><line class="cls-2" x1="286.01" y1="21.28" x2="274.8" y2="40.69"/><line class="cls-2" x1="199.81" y1="112.42" x2="180.02" y2="122.93"/><line class="cls-2" x1="315.92" y1="53.16" x2="296.12" y2="63.68"/><path class="cls-1" d="M153.26,244.7c-3.52-20.12-11.83-22.91-13.68-34.89-1.67-10.74,2.66-23.35,13.89-28.64,12.58,5,17.44,19.51,15.26,30.66C166.27,224.39,158.58,221.4,153.26,244.7Z"/><path class="cls-1" d="M153.26,252.33c.74-26.14,14.25-38.25,39.29-38.69C191.9,239.26,178.93,251.76,153.26,252.33Z"/><path class="cls-1" d="M153.26,252.63c-26.14-.74-38.25-14.25-38.69-39.29C140.19,214,152.69,227,153.26,252.63Z"/><line class="cls-1" x1="153.26" y1="252.33" x2="153.26" y2="289.49"/><path class="cls-1" d="M245.93,244.7c-3.52-20.12-11.83-22.91-13.68-34.89-1.67-10.74,2.66-23.35,13.89-28.64,12.58,5,17.44,19.51,15.26,30.66C258.95,224.39,251.26,221.4,245.93,244.7Z"/><path class="cls-1" d="M245.93,252.33c.74-26.14,14.25-38.25,39.29-38.69C284.57,239.26,271.6,251.76,245.93,252.33Z"/><path class="cls-1" d="M245.93,252.63c-26.14-.74-38.25-14.25-38.69-39.29C232.86,214,245.36,227,245.93,252.63Z"/><line class="cls-1" x1="245.93" y1="252.33" x2="245.93" y2="289.49"/><path class="cls-1" d="M334.58,244.7c-3.52-20.12-11.83-22.91-13.68-34.89-1.67-10.74,2.66-23.35,13.89-28.64,12.58,5,17.44,19.51,15.26,30.66C347.6,224.39,339.91,221.4,334.58,244.7Z"/><path class="cls-1" d="M334.58,252.33c.74-26.14,14.25-38.25,39.29-38.69C373.22,239.26,360.25,251.76,334.58,252.33Z"/><path class="cls-1" d="M334.58,252.63c-26.14-.74-38.25-14.25-38.69-39.29C321.51,214,334,227,334.58,252.63Z"/><line class="cls-1" x1="334.58" y1="252.33" x2="334.58" y2="289.49"/></svg>