<svg id="Layer_1" data-name="Layer 1" xmlns="http://www.w3.org/2000/svg" viewBox="0 0 500 300"><defs><style>.cls-1,.cls-2{fill:none;stroke-miterlimit:10;stroke-width:2px;}.cls-1{stroke:#000;}.cls-2{stroke:#231f20;}</style></defs><title>Artboard 16</title><polyline class="cls-1" points="367.84 206.64 70.81 206.64 70.81 59.47 394.83 59.47 394.83 131.28"/><circle class="cls-1" cx="232.78" cy="135.2" r="45.09"/><path class="cls-2" d="M242.54,116.81a10.83,10.83,0,0,0-11-3.62,9.89,9.89,0,0,0-7.15,8.9c-.36,11.33,14.26,7.8,18.63,15.17a7.59,7.59,0,0,1-.11,7.29c-4.54,8.54-16.23,7.51-22.56,1.8"/><line class="cls-2" x1="234.59" y1="107.73" x2="234.59" y2="154.7"/><path class="cls-2" d="M429.18,146.68c-.07-8.3-13.77-15-30.67-15s-30.6,6.72-30.67,15h0v78.76c0,8.34,13.73,15.09,30.68,15.09s30.68-6.76,30.68-15.09V146.68Z"/><path class="cls-2" d="M429.19,146.31c0,8.34-13.73,15.09-30.68,15.09s-30.68-6.76-30.68-15.09"/><path class="cls-2" d="M429.19,172.74c0,8.34-13.73,15.09-30.68,15.09s-30.68-6.76-30.68-15.09"/><path class="cls-2" d="M429.19,189c0,8.34-13.73,15.09-30.68,15.09s-30.68-6.76-30.68-15.09"/><path class="cls-2" d="M429.19,206.64c0,8.34-13.73,15.09-30.68,15.09s-30.68-6.76-30.68-15.09"/></svg>